<svg xmlns="http://www.w3.org/2000/svg" xmlns:xlink="http://www.w3.org/1999/xlink" width="235.177" height="94.687" viewBox="0 0 235.177 94.687"><defs><style>.a{fill:url(#a);}.b{fill:#ff5b2e;}.c{fill:#002140;}</style><linearGradient id="a" y1="0.5" x2="1" y2="0.5" gradientUnits="objectBoundingBox"><stop offset="0" stop-color="#e60012"/><stop offset="1" stop-color="#ffa67f"/></linearGradient></defs><g transform="translate(981.237 -79.53)"><g transform="translate(-981.237 79.53)"><path class="a" d="M-928.066,205.633a6.571,6.571,0,0,1-3.811-1.216l-46.576-33a6.607,6.607,0,0,1-2.576-7.039,6.753,6.753,0,0,1,2.68-3.805l46.473-32.931a6.6,6.6,0,0,1,9.2,1.569,6.6,6.6,0,0,1-1.569,9.2l-35.61,25.233a2.923,2.923,0,0,0,0,4.77l35.61,25.233a6.6,6.6,0,0,1,1.569,9.2A6.6,6.6,0,0,1-928.066,205.633Z" transform="translate(981.237 -110.946)"/><circle class="b" cx="4.951" cy="4.951" r="4.951" transform="translate(45.969 48.268)"/><rect class="b" width="13.202" height="16.502" rx="6.601" transform="matrix(0.808, -0.589, 0.589, 0.808, 29.466, 7.779)"/><rect class="b" width="13.202" height="16.502" rx="6.601" transform="matrix(0.808, -0.589, 0.589, 0.808, 17.466, 16.53)"/><path class="b" d="M-931.877,271.414a6.571,6.571,0,0,0,3.811,1.216,6.6,6.6,0,0,0,5.392-2.785,6.6,6.6,0,0,0-1.569-9.2l-38.976-27.617-7.557-5.355h0a6.571,6.571,0,0,0-3.86-1.246,6.573,6.573,0,0,0-4.174,1.489l-.072.062q-.2.165-.379.345c-.02.019-.04.037-.058.056-.13.131-.254.269-.374.411l-.076.093c-.116.144-.228.291-.332.445-.011.016-.021.034-.032.05-.091.137-.176.278-.256.422-.026.047-.053.093-.078.14q-.119.224-.22.457c-.023.054-.045.109-.067.163-.055.136-.106.274-.152.414-.017.051-.034.1-.049.154-.047.156-.087.315-.122.476-.012.053-.023.106-.034.159-.035.178-.063.358-.082.541,0,.041-.008.082-.011.122-.018.2-.03.4-.03.6v.007c0,.133,0,.265.012.4.007.109.018.217.029.324,0,.023,0,.047.006.07a6.606,6.606,0,0,0,.868,2.556l.013.023c.055.093.114.184.174.274.013.02.026.041.039.061.053.078.109.153.165.229.023.03.044.061.067.091.05.066.1.129.157.192.031.037.061.076.093.113.049.056.1.111.153.166s.075.082.114.122c.055.056.113.11.17.164.037.035.073.071.11.105.088.08.179.157.271.232l.024.02q.154.125.318.24Z" transform="translate(981.237 -177.943)"/></g><g transform="translate(-895.141 146.436)"><path class="c" d="M-717.03,293.614c.131,1.62,1.158,2.641,3.2,2.641,1.744,0,2.73-.637,2.73-2.1,0-1.242-.779-1.9-2.917-2.64-3.271-1.121-4.475-2.434-4.475-4.457,0-2.583,1.828-4.8,5.9-4.8,3.724,0,5.759,1.921,5.818,4.745h-3.337c-.072-.972-.505-2.175-2.624-2.175-1.365,0-2.373.621-2.373,1.868,0,.892.513,1.459,2.577,2.179,3.259,1.144,4.88,2.448,4.88,4.871,0,2.558-1.552,5.044-6.508,5.044-4.014,0-6.123-2.033-6.213-5.17Z" transform="translate(720.373 -282.251)"/><path class="c" d="M-647.756,285.65h-4.692l.582-2.693h12.648l-.582,2.693h-4.677l-2.823,13.374h-3.281Z" transform="translate(674.866 -282.724)"/><path class="c" d="M-572.867,288.942c0,4.939-2.751,9.841-8.864,9.841-4.271,0-6.338-2.821-6.338-6.469,0-4.777,2.919-10.064,8.738-10.064C-574.9,282.251-572.867,285.208-572.867,288.942Zm-11.793,3.247c0,2.429,1.1,3.964,3.358,3.964,3.612,0,5.066-3.9,5.066-7.257,0-2.351-.942-4.013-3.291-4.013C-582.938,284.882-584.659,288.79-584.659,292.189Z" transform="translate(631.735 -282.251)"/><path class="c" d="M-506.3,293.524a7.11,7.11,0,0,1-7.367,5.255c-3.931,0-6.049-2.446-6.049-6.484,0-4.189,2.407-10.043,8.635-10.043,3.6,0,5.814,1.937,5.918,5.321h-3.427a2.533,2.533,0,0,0-2.853-2.69c-3.171,0-4.757,4.079-4.757,7.383,0,2.18.719,3.882,2.905,3.882,1.879,0,2.861-1.089,3.542-2.623Z" transform="translate(585.943 -282.251)"/><path class="c" d="M-452.329,282.957h3.24l-1.53,7.167c1.292-1.37,5.136-4.734,7.636-7.167h4.034l-7.665,6.845,4.591,9.222h-3.629l-3.454-7.289-2.2,1.69-1.167,5.6h-3.261Z" transform="translate(543.077 -282.724)"/><path class="c" d="M-372.5,292h-7.23l-.914,4.333h8.228l-.953,2.692h-11.076l3.408-16.067h10.792l-.579,2.693h-7.552l-.772,3.656h7.23Z" transform="translate(495.317 -282.724)"/><path class="c" d="M-320.764,299.024l3.408-16.067h4.228c1.13,3.749,3.1,10.226,3.412,12.274h.044c.239-1.846.856-4.692,1.415-7.328l1.049-4.946h3.076l-3.408,16.067h-4.015c-.982-3.381-3.178-11.043-3.461-12.853h-.044c-.306,2.021-.926,4.9-1.535,7.782l-1.072,5.071Z" transform="translate(452.651 -282.724)"/></g><g transform="translate(-895.141 98.936)"><g transform="translate(0 0.33)"><path class="c" d="M-714.715,176.868v1.947a.593.593,0,0,1-.593.593h-4.42a.644.644,0,0,1-.643-.652l.165-12.044v-8.035l-.035-5.714.278-.209,6.153.1h.278l5.844-.1.278.209-.1,5.714v7.513l.165,12.527a.682.682,0,0,1-.682.691h-3.249a.546.546,0,0,1-.546-.546v-1.845a.566.566,0,0,0-.566-.566h-1.9A.416.416,0,0,0-714.715,176.868Zm2.887-19.826h-2.887v14.991h2.887Z" transform="translate(720.372 -148.324)"/><path class="c" d="M-674.575,139.54l.174-.209h4.835l.209.209v5.913H-666l5.774-.1.244.244v4.1l-.244.243-5.774-.1h-3.362v5.913h3.93l3.883-.1.243.209-.1,4.974v3.513l.164,7.1a.441.441,0,0,1-.441.451h-4.453a.418.418,0,0,1-.418-.418v-1.321a.243.243,0,0,0-.243-.243h-9.656a.193.193,0,0,0-.193.193v1.362a.5.5,0,0,1-.5.5h-2.937a.4.4,0,0,1-.4-.407s.163-5.759.163-6.271v-4.452l-.1-4.974.209-.209,2.156.1h3.478v-5.913h-.3l-5.774.1-.244-.243v-4.174l.313-.174,5.705.1h.3Zm8.022,20.383h-9.9V165.7h9.9Z" transform="translate(693.92 -139.331)"/></g><g transform="translate(57.451 0.557)"><path class="c" d="M-532.628,167.218c0,.452,0,.835-.035,1.217a25.7,25.7,0,0,0,6.157-2.957,21.418,21.418,0,0,1-3.339-4.522v-.383l3.27-1.878h.383a17.628,17.628,0,0,0,3.061,3.722,15.092,15.092,0,0,0,2.3-3.826h-5.739l-5.044.1-.244-.279v-3.757l.244-.209,5.252.1h6.818l2.226-.139,1.982,1.809a.883.883,0,0,1,.209.626,1.266,1.266,0,0,1-.07.487,24.732,24.732,0,0,1-4.244,7.722,26.856,26.856,0,0,0,7.2,2.5l-2.748,4a.8.8,0,0,1-.7.383,1.365,1.365,0,0,1-.487-.1,25.3,25.3,0,0,1-6.748-3.3,19.838,19.838,0,0,1-6.192,3.478,2.207,2.207,0,0,1-.73.174.51.51,0,0,1-.452-.209l-2.435-2.957c-.348,2.331-1.7,2.888-5.043,2.888-.7,0-.8-.07-.9-.417l-1.287-4.244a18.186,18.186,0,0,0,1.983,0c.557-.069.8-.139.8-1.043v-5.635h-2.539c-.313,5.427-1.217,8.592-3.026,11.235-.174.244-.348.383-.522.383-.139,0-.279-.1-.453-.278l-2.574-2.853c1.739-2.956,2.3-5.322,2.3-12.139V145.339l-.1-5.079.244-.243,3.757.1h3.513l3.756-.1.244.243-.1,5.079v5.983c2.261-1.635,2.887-3.026,2.887-5.913v-1.53l-.07-3.13.313-.243,3.444.1h5.253l3.1-.1.243.278-.1,3.374v4.07c0,.8,0,.8.661.8.557,0,.9-.174,1.078-3.791l3.235,1.53c.383.174.383.244.383.591-.035,2.679-.452,3.965-1.287,4.731-1.078,1.009-1.774,1.218-4.383,1.218-3.791,0-4.522-.279-4.522-3.444l.07-4.1v-1.079h-2.644v.661c0,4.313-1.113,6.817-3.792,8.939-.174.139-.278.209-.382.209a.36.36,0,0,1-.278-.139l-3.2-2.713v5.635Zm-4.557-23.1h-2.435v4.07h2.435Zm0,8.07h-2.435v4.383h2.435Z" transform="translate(546.298 -140.017)"/></g><g transform="translate(114.889 0)"><path class="c" d="M-352.753,139.026l.244-.278h3.9l.244.243v5.357l.8-.939h.418l.209.139a31.959,31.959,0,0,0,1.5-4.313l.418-.1,2.4.87.139.452a42.332,42.332,0,0,1-2.053,4.8c.209.174.418.313.591.452q.783-1.617,1.461-3.13l.418-.139,2.713,1.322.035.383c-.835,1.565-1.774,3.27-2.748,4.87l.174-.174,1.913-.417.278.139a18.082,18.082,0,0,1,1.635,4.73l-.279.279-2.539.7-.278-.209a8.04,8.04,0,0,0-.174-.974c-1.5.313-3.27.591-5.809,1.009l-.313-.244-.591-1.7a38.487,38.487,0,0,0,.452,3.965h2.678a9.5,9.5,0,0,0-.8-1.252l.139-.313,2.47-1.009.278.07a12.62,12.62,0,0,1,1.67,2.435l2.435-.035.244.209v3.339l-.244.209-5.148-.1h-3.026a18.463,18.463,0,0,0,.939,2.713l.07.1a21.975,21.975,0,0,0,1.983-2.47l.313-.035,2.783,1.879.035.417a21.864,21.864,0,0,1-3.165,3.583c.557.626,1.043.974,1.461.974.556,0,.835-.383,1.113-3.165l2.609,1.7a.864.864,0,0,1,.487.939c-.452,3.513-1.391,5.079-4.139,5.079-1.426,0-3.13-.557-4.974-2.957a25.308,25.308,0,0,1-5.983,2.678.955.955,0,0,1-.418.07.814.814,0,0,1-.7-.452L-356.475,168a24.053,24.053,0,0,0,7.1-2.991l-.313-.626a26.088,26.088,0,0,1-1.531-4.73h-3.826c-.035.8-.1,1.565-.209,2.365l1.218-.939.348.035a17.034,17.034,0,0,1,2.991,2.365l.035.348-2.574,2.226h-.383a26.541,26.541,0,0,0-2.018-1.913,12.687,12.687,0,0,1-4.348,6.852c-.139.139-.244.209-.348.209s-.174-.07-.279-.139l-3.061-2.5.069,3.061h-4.626l.313-12.035a27.428,27.428,0,0,1-1.391,3.757c-.1.209-.244.313-.383.313a.674.674,0,0,1-.522-.383l-2.052-3.478a40.476,40.476,0,0,0,4.07-10.748l-3.269.1-.244-.209v-3.791l.209-.209,3.478.1v-6.5l.174-.209h3.792l.209.209v6.47l1.809-.035,1.357-1.635h.417a3.648,3.648,0,0,0,.383.244,44.646,44.646,0,0,0,1.7-4.453l.418-.07,2.4.9.139.452c-.661,1.67-1.461,3.339-2.226,4.87.209.174.452.348.661.522.487-1.009.939-1.983,1.287-2.783l.348-.1,2.4,1.183Zm-1.461,16-.279-.208c-.035-.313-.1-.661-.174-1.044-1.7.348-3.792.661-5.844.939l-.313-.243-.835-2.609.243-.279c.557-.035,1.079-.035,1.565-.07.522-.9,1.009-1.809,1.531-2.713a36.744,36.744,0,0,0-2.887-2.33v2.5l-.174.174-2.47-.07v3.1l.7-.557h.313a37.56,37.56,0,0,1,2.957,4.418l3.617.07h4.348c-.1-.557-.139-1.113-.209-1.635Zm-7.027,4.731-.244-.209V157.7l-.835.7-.278-.035c-.348-.73-.765-1.6-1.252-2.47v2.713l.174,9.809a12.676,12.676,0,0,0,2.922-3.165,11.825,11.825,0,0,0,1.461-5.53Zm5.009-8.592c.418-.035.835-.07,1.253-.139a7.994,7.994,0,0,0-.417-1.183C-355.675,150.3-355.953,150.748-356.232,151.165Zm3.026-2.156a17.175,17.175,0,0,1,.7,1.6c-.1-1.809-.174-3.583-.209-5.392-.7,1.356-1.461,2.678-2.261,3.965l1.5-.313Zm6.47,1.878c.417-.731.835-1.426,1.217-2.191-.9-.8-1.844-1.6-2.817-2.331.035,1.53.1,3.1.209,4.592C-347.64,150.922-347.188,150.922-346.735,150.887Zm3.687-.348c.452-.07.9-.1,1.356-.174-.139-.417-.279-.835-.452-1.252C-342.457,149.6-342.77,150.087-343.048,150.54Z" transform="translate(372.267 -138.33)"/></g></g></g></svg>